<svg width="837" height="209" viewBox="0 0 837 209" fill="none" xmlns="http://www.w3.org/2000/svg">
<path d="M33.6307 3.32722L33.5678 2.9H33.136H1.168H0.58494L0.673846 3.47624L31.7778 205.076L31.8432 205.5H32.272H79.504H79.9328L79.9982 205.076L111.102 3.47624L111.191 2.9H110.608H81.52H81.0882L81.0253 3.32722L57.328 164.413L33.6307 3.32722ZM214.963 87.86H171.975V32.7H226.195H226.695V32.2V3.4V2.9H226.195H139.795H139.295V3.4V205V205.5H139.795H226.195H226.695V205V176.2V175.7H226.195H171.975V117.66H214.963H215.463V117.16V88.36V87.86H214.963ZM327.424 205.13L327.523 205.5H327.906H360.45H360.95V205V3.4V2.9H360.45H332.226H331.726V3.4V120.298L300.165 3.2698L300.065 2.9H299.682H259.938H259.438V3.4V205V205.5H259.938H288.45H288.95V205V62.7511L327.424 205.13ZM570.389 3.31957L570.321 2.9H569.896H525.832H525.332V3.4V205V205.5H525.832H553.48H553.98V205V68.5178L576.603 205.082L576.672 205.5H577.096H607.048H607.478L607.542 205.075L628.436 67.067V205V205.5H628.936H658.888H659.388V205V3.4V2.9H658.888H614.824H614.394L614.33 3.32539L593.205 143.311L570.389 3.31957ZM740.551 205V205.5H741.051H832.635H833.135V205V176.2V175.7H832.635H773.149C772.944 174.449 772.943 173.188 772.943 171.88C772.943 163.763 776.807 156.185 782.698 148.353C786.696 143.038 791.588 137.652 796.79 131.927C799.263 129.205 801.806 126.406 804.355 123.502C820.144 105.514 836.015 83.652 836.015 51.784C836.015 35.5789 831.964 22.7685 823.932 14.0061C815.893 5.23659 803.935 0.596008 788.283 0.596008C772.631 0.596008 760.673 5.23659 752.635 14.0061C744.603 22.7685 740.551 35.5789 740.551 51.784V71.368V71.868H741.051H771.003H771.503V71.368V49.768C771.503 42.6301 773.075 37.8051 775.803 34.766C778.522 31.7377 782.468 30.396 787.419 30.396C792.382 30.396 796.308 31.5989 799.02 34.9277C801.754 38.2846 803.335 43.9011 803.335 52.936C803.335 81.6866 787.91 98.5265 772.273 115.597L772.075 115.814C756.383 132.946 740.551 150.355 740.551 180.232V205ZM427.121 49.768C427.121 42.6301 428.692 37.8051 431.421 34.766C434.139 31.7377 438.085 30.396 443.037 30.396C447.988 30.396 451.934 31.7377 454.652 34.766C457.381 37.8051 458.953 42.6301 458.953 49.768V158.632C458.953 165.77 457.381 170.595 454.652 173.634C451.934 176.662 447.988 178.004 443.037 178.004C438.085 178.004 434.139 176.662 431.421 173.634C428.692 170.595 427.121 165.77 427.121 158.632V49.768ZM394.441 156.616C394.441 172.827 398.711 185.638 406.961 194.399C415.214 203.164 427.385 207.804 443.037 207.804C458.688 207.804 470.859 203.164 479.113 194.399C487.362 185.638 491.633 172.827 491.633 156.616V51.784C491.633 35.5726 487.362 22.7617 479.113 14.0012C470.859 5.23611 458.688 0.596008 443.037 0.596008C427.385 0.596008 415.214 5.23611 406.961 14.0012C398.711 22.7617 394.441 35.5726 394.441 51.784V156.616Z" fill="#EFE8F4"/>
<path d="M33.6307 3.32722L33.5678 2.9H33.136H1.168H0.58494L0.673846 3.47624L31.7778 205.076L31.8432 205.5H32.272H79.504H79.9328L79.9982 205.076L111.102 3.47624L111.191 2.9H110.608H81.52H81.0882L81.0253 3.32722L57.328 164.413L33.6307 3.32722ZM214.963 87.86H171.975V32.7H226.195H226.695V32.2V3.4V2.9H226.195H139.795H139.295V3.4V205V205.5H139.795H226.195H226.695V205V176.2V175.7H226.195H171.975V117.66H214.963H215.463V117.16V88.36V87.86H214.963ZM327.424 205.13L327.523 205.5H327.906H360.45H360.95V205V3.4V2.9H360.45H332.226H331.726V3.4V120.298L300.165 3.2698L300.065 2.9H299.682H259.938H259.438V3.4V205V205.5H259.938H288.45H288.95V205V62.7511L327.424 205.13ZM570.389 3.31957L570.321 2.9H569.896H525.832H525.332V3.4V205V205.5H525.832H553.48H553.98V205V68.5178L576.603 205.082L576.672 205.5H577.096H607.048H607.478L607.542 205.075L628.436 67.067V205V205.5H628.936H658.888H659.388V205V3.4V2.9H658.888H614.824H614.394L614.33 3.32539L593.205 143.311L570.389 3.31957ZM740.551 205V205.5H741.051H832.635H833.135V205V176.2V175.7H832.635H773.149C772.944 174.449 772.943 173.188 772.943 171.88C772.943 163.763 776.807 156.185 782.698 148.353C786.696 143.038 791.588 137.652 796.79 131.927C799.263 129.205 801.806 126.406 804.355 123.502C820.144 105.514 836.015 83.652 836.015 51.784C836.015 35.5789 831.964 22.7685 823.932 14.0061C815.893 5.23659 803.935 0.596008 788.283 0.596008C772.631 0.596008 760.673 5.23659 752.635 14.0061C744.603 22.7685 740.551 35.5789 740.551 51.784V71.368V71.868H741.051H771.003H771.503V71.368V49.768C771.503 42.6301 773.075 37.8051 775.803 34.766C778.522 31.7377 782.468 30.396 787.419 30.396C792.382 30.396 796.308 31.5989 799.02 34.9277C801.754 38.2846 803.335 43.9011 803.335 52.936C803.335 81.6866 787.91 98.5265 772.273 115.597L772.075 115.814C756.383 132.946 740.551 150.355 740.551 180.232V205ZM427.121 49.768C427.121 42.6301 428.692 37.8051 431.421 34.766C434.139 31.7377 438.085 30.396 443.037 30.396C447.988 30.396 451.934 31.7377 454.652 34.766C457.381 37.8051 458.953 42.6301 458.953 49.768V158.632C458.953 165.77 457.381 170.595 454.652 173.634C451.934 176.662 447.988 178.004 443.037 178.004C438.085 178.004 434.139 176.662 431.421 173.634C428.692 170.595 427.121 165.77 427.121 158.632V49.768ZM394.441 156.616C394.441 172.827 398.711 185.638 406.961 194.399C415.214 203.164 427.385 207.804 443.037 207.804C458.688 207.804 470.859 203.164 479.113 194.399C487.362 185.638 491.633 172.827 491.633 156.616V51.784C491.633 35.5726 487.362 22.7617 479.113 14.0012C470.859 5.23611 458.688 0.596008 443.037 0.596008C427.385 0.596008 415.214 5.23611 406.961 14.0012C398.711 22.7617 394.441 35.5726 394.441 51.784V156.616Z" stroke="black"/>
<path d="M33.6307 3.32722L33.5678 2.9H33.136H1.168H0.58494L0.673846 3.47624L31.7778 205.076L31.8432 205.5H32.272H79.504H79.9328L79.9982 205.076L111.102 3.47624L111.191 2.9H110.608H81.52H81.0882L81.0253 3.32722L57.328 164.413L33.6307 3.32722ZM214.963 87.86H171.975V32.7H226.195H226.695V32.2V3.4V2.9H226.195H139.795H139.295V3.4V205V205.5H139.795H226.195H226.695V205V176.2V175.7H226.195H171.975V117.66H214.963H215.463V117.16V88.36V87.86H214.963ZM327.424 205.13L327.523 205.5H327.906H360.45H360.95V205V3.4V2.9H360.45H332.226H331.726V3.4V120.298L300.165 3.2698L300.065 2.9H299.682H259.938H259.438V3.4V205V205.5H259.938H288.45H288.95V205V62.7511L327.424 205.13ZM570.389 3.31957L570.321 2.9H569.896H525.832H525.332V3.4V205V205.5H525.832H553.48H553.98V205V68.5178L576.603 205.082L576.672 205.5H577.096H607.048H607.478L607.542 205.075L628.436 67.067V205V205.5H628.936H658.888H659.388V205V3.4V2.9H658.888H614.824H614.394L614.33 3.32539L593.205 143.311L570.389 3.31957ZM740.551 205V205.5H741.051H832.635H833.135V205V176.2V175.7H832.635H773.149C772.944 174.449 772.943 173.188 772.943 171.88C772.943 163.763 776.807 156.185 782.698 148.353C786.696 143.038 791.588 137.652 796.79 131.927C799.263 129.205 801.806 126.406 804.355 123.502C820.144 105.514 836.015 83.652 836.015 51.784C836.015 35.5789 831.964 22.7685 823.932 14.0061C815.893 5.23659 803.935 0.596008 788.283 0.596008C772.631 0.596008 760.673 5.23659 752.635 14.0061C744.603 22.7685 740.551 35.5789 740.551 51.784V71.368V71.868H741.051H771.003H771.503V71.368V49.768C771.503 42.6301 773.075 37.8051 775.803 34.766C778.522 31.7377 782.468 30.396 787.419 30.396C792.382 30.396 796.308 31.5989 799.02 34.9277C801.754 38.2846 803.335 43.9011 803.335 52.936C803.335 81.6866 787.91 98.5265 772.273 115.597L772.075 115.814C756.383 132.946 740.551 150.355 740.551 180.232V205ZM427.121 49.768C427.121 42.6301 428.692 37.8051 431.421 34.766C434.139 31.7377 438.085 30.396 443.037 30.396C447.988 30.396 451.934 31.7377 454.652 34.766C457.381 37.8051 458.953 42.6301 458.953 49.768V158.632C458.953 165.77 457.381 170.595 454.652 173.634C451.934 176.662 447.988 178.004 443.037 178.004C438.085 178.004 434.139 176.662 431.421 173.634C428.692 170.595 427.121 165.77 427.121 158.632V49.768ZM394.441 156.616C394.441 172.827 398.711 185.638 406.961 194.399C415.214 203.164 427.385 207.804 443.037 207.804C458.688 207.804 470.859 203.164 479.113 194.399C487.362 185.638 491.633 172.827 491.633 156.616V51.784C491.633 35.5726 487.362 22.7617 479.113 14.0012C470.859 5.23611 458.688 0.596008 443.037 0.596008C427.385 0.596008 415.214 5.23611 406.961 14.0012C398.711 22.7617 394.441 35.5726 394.441 51.784V156.616Z" stroke="url(#paint0_linear)"/>
<defs>
<linearGradient id="paint0_linear" x1="418.342" y1="1.09601" x2="418.342" y2="207.304" gradientUnits="userSpaceOnUse">
<stop stop-color="white"/>
<stop offset="1" stop-color="white" stop-opacity="0"/>
</linearGradient>
</defs>
</svg>
